<svg xmlns="http://www.w3.org/2000/svg" viewBox="0 0 32 32" width="32" height="32">
  <defs>
    <linearGradient id="spotifyGradient" x1="0%" y1="0%" x2="100%" y2="100%">
      <stop offset="0%" style="stop-color:#1DB954;stop-opacity:1" />
      <stop offset="100%" style="stop-color:#1ED760;stop-opacity:1" />
    </linearGradient>
  </defs>
  
  <!-- Background circle -->
  <circle cx="16" cy="16" r="16" fill="url(#spotifyGradient)"/>
  
  <!-- Music note -->
  <path d="M12 8v12c0 1.1-.9 2-2 2s-2-.9-2-2 .9-2 2-2c.4 0 .7.1 1 .3V10.5L20 9v8.5c0 1.1-.9 2-2 2s-2-.9-2-2 .9-2 2-2c.4 0 .7.1 1 .3V7l-7 1z" fill="white"/>
  
  <!-- Small musical notes -->
  <circle cx="8" cy="6" r="1" fill="white" opacity="0.7"/>
  <circle cx="24" cy="24" r="1" fill="white" opacity="0.7"/>
  <circle cx="6" cy="26" r="0.8" fill="white" opacity="0.5"/>
</svg>
